<svg width="16" height="16" viewBox="0 0 16 16" fill="none" xmlns="http://www.w3.org/2000/svg">
<g clip-path="url(#clip0_20_95)">
<path d="M15.142 2.71794C14.9545 2.4929 14.7197 2.31191 14.4544 2.18782C14.189 2.06373 13.8996 1.99958 13.6067 1.99994H2.828L2.8 1.76594C2.7427 1.27955 2.50892 0.831094 2.14299 0.505591C1.77706 0.180088 1.30442 0.000166827 0.814667 -6.10352e-05L0.666667 -6.10352e-05C0.489856 -6.10352e-05 0.320286 0.0701769 0.195262 0.195201C0.0702379 0.320225 0 0.489795 0 0.666606C0 0.843417 0.0702379 1.01299 0.195262 1.13801C0.320286 1.26303 0.489856 1.33327 0.666667 1.33327H0.814667C0.977956 1.33329 1.13556 1.39324 1.25758 1.50175C1.3796 1.61026 1.45756 1.75977 1.47667 1.92194L2.394 9.72194C2.48923 10.5331 2.87899 11.2811 3.48927 11.8239C4.09956 12.3668 4.8879 12.6666 5.70467 12.6666H12.6667C12.8435 12.6666 13.013 12.5964 13.1381 12.4713C13.2631 12.3463 13.3333 12.1768 13.3333 11.9999C13.3333 11.8231 13.2631 11.6536 13.1381 11.5285C13.013 11.4035 12.8435 11.3333 12.6667 11.3333H5.70467C5.29204 11.3321 4.88987 11.2034 4.55329 10.9646C4.21671 10.7259 3.96221 10.389 3.82467 9.99994H11.7713C12.5529 9.99999 13.3096 9.72543 13.9092 9.22423C14.5089 8.72303 14.9134 8.02707 15.052 7.25794L15.5753 4.35527C15.6276 4.06728 15.6158 3.77132 15.5409 3.48836C15.4661 3.20541 15.3299 2.94239 15.142 2.71794ZM14.2667 4.11861L13.7427 7.02127C13.6594 7.48327 13.4163 7.90127 13.0559 8.20207C12.6955 8.50288 12.2408 8.66732 11.7713 8.66661H3.61267L2.98533 3.33327H13.6067C13.7046 3.33269 13.8015 3.35369 13.8904 3.39478C13.9793 3.43587 14.058 3.49604 14.121 3.57101C14.184 3.64598 14.2297 3.73392 14.2549 3.82856C14.2801 3.92321 14.2841 4.02224 14.2667 4.11861Z" fill="#181818"/>
<path d="M4.66677 16.0004C5.40314 16.0004 6.0001 15.4034 6.0001 14.667C6.0001 13.9307 5.40314 13.3337 4.66677 13.3337C3.93039 13.3337 3.33344 13.9307 3.33344 14.667C3.33344 15.4034 3.93039 16.0004 4.66677 16.0004Z" fill="#181818"/>
<path d="M11.3333 16.0004C12.0697 16.0004 12.6667 15.4034 12.6667 14.667C12.6667 13.9307 12.0697 13.3337 11.3333 13.3337C10.597 13.3337 10 13.9307 10 14.667C10 15.4034 10.597 16.0004 11.3333 16.0004Z" fill="#181818"/>
</g>
<defs>
<clipPath id="clip0_20_95">
<rect width="16" height="16" fill="white"/>
</clipPath>
</defs>
</svg>
