<svg width="36" height="10" viewBox="0 0 36 10" fill="none" xmlns="http://www.w3.org/2000/svg">
<path d="M33.9827 0.488968H30.5929L26.6224 4.5032L30.0707 4.50262L33.9827 0.489114V0.488968Z" fill="white"/>
<path d="M23.3335 7.59759V7.62459V7.82558V9.4369H23.608C23.9749 9.4369 24.3248 9.40803 24.6616 9.34841C24.9961 9.28841 25.293 9.19316 25.5494 9.06154C25.8047 8.93067 26.0093 8.75518 26.1635 8.53468C26.3154 8.31457 26.3919 8.04383 26.3919 7.72209V5.33979V4.43232V0.488952H23.3335V7.59759Z" fill="white"/>
<path d="M30.0705 5.23884H26.6222L30.4554 8.54398C31.5309 9.43945 32.6233 9.43683 33.0016 9.43683H35.346L30.0705 5.23884Z" fill="white"/>
<path d="M8.79905 3.69828H3.47049C3.37975 3.69828 3.30477 3.62516 3.30477 3.53666V2.95168C3.30477 2.86243 3.37975 2.79081 3.47049 2.79081H8.79905C9.22932 2.79081 9.57845 2.9933 9.57845 3.24417C9.57845 3.49429 9.22932 3.69828 8.79905 3.69828ZM8.79905 7.23291H3.47049C3.37975 7.23291 3.30477 7.16091 3.30477 7.07204V6.48669C3.30477 6.39744 3.37975 6.32544 3.47049 6.32544H8.79905C9.22932 6.32544 9.57845 6.52906 9.57845 6.77918C9.57845 7.03004 9.22932 7.23291 8.79905 7.23291ZM10.2348 4.41038L10.2194 4.41C11.3657 4.28963 12.2539 3.46166 12.2539 2.45669C12.2539 1.36998 11.2138 0.489135 9.9322 0.489135L9.7038 0.491759C9.65113 0.490635 9.60037 0.489135 9.54615 0.489135H0.279053V9.43709H9.52808C9.63344 9.43709 9.73726 9.43446 9.84031 9.42921L9.9595 9.43259C11.5994 9.43259 12.9283 8.30575 12.9283 6.91567C12.9283 5.60584 11.7459 4.52813 10.2348 4.41038Z" fill="white"/>
<path d="M16.4368 2.34759C16.4368 1.74011 16.1853 1.2755 15.6846 0.954515C15.1836 0.63315 14.5061 0.471906 13.6514 0.471906H13.3772L13.3857 7.74104C13.4091 7.98666 13.4791 8.20152 13.5975 8.38414C13.7433 8.61026 13.9455 8.80113 14.2008 8.956C14.4581 9.11162 14.7572 9.22712 15.0987 9.30436C15.4409 9.38199 15.8065 9.42061 16.1976 9.42061H19.9708C20.3611 9.42061 20.7252 9.38461 21.0609 9.31336C21.3962 9.24099 21.6892 9.13487 21.9391 8.99162C22.1894 8.84875 22.3928 8.65863 22.552 8.42014C22.6443 8.28177 22.8281 7.86366 22.8281 7.60829V7.32143H16.4368V2.34759Z" fill="white"/>
</svg>
