<svg width="141" height="36" viewBox="0 0 141 36" fill="none" xmlns="http://www.w3.org/2000/svg">
<path d="M134.93 0.215149H121.37L105.489 16.2721L119.282 16.2697L134.93 0.215735V0.215149Z" fill="white"/>
<path d="M92.333 28.6497V28.7577V29.5616V36.0069H93.4312C94.8985 36.0069 96.2981 35.8914 97.6454 35.6529C98.9835 35.4129 100.171 35.032 101.197 34.5055C102.218 33.982 103.036 33.28 103.653 32.398C104.261 31.5176 104.567 30.4346 104.567 29.1477V19.6185V15.9886V0.215115H92.333V28.6497Z" fill="white"/>
<path d="M119.281 19.2146H105.488L120.821 32.4352C125.123 36.0171 129.492 36.0066 131.006 36.0066H140.383L119.281 19.2146Z" fill="white"/>
<path d="M34.1951 13.0524H12.8809C12.5179 13.0524 12.218 12.7599 12.218 12.4059V10.066C12.218 9.709 12.5179 9.42251 12.8809 9.42251H34.1951C35.9162 9.42251 37.3127 10.2325 37.3127 11.236C37.3127 12.2364 35.9162 13.0524 34.1951 13.0524ZM34.1951 27.1909H12.8809C12.5179 27.1909 12.218 26.9029 12.218 26.5474V24.206C12.218 23.849 12.5179 23.561 12.8809 23.561H34.1951C35.9162 23.561 37.3127 24.3755 37.3127 25.376C37.3127 26.3794 35.9162 27.1909 34.1951 27.1909ZM39.9382 15.9008L39.8766 15.8993C44.4615 15.4178 48.0144 12.1059 48.0144 8.08606C48.0144 3.7392 43.854 0.215816 38.7277 0.215816L37.8141 0.226315C37.6034 0.221817 37.4004 0.215816 37.1835 0.215816H0.115112V36.0076H37.1112C37.5327 36.0076 37.9479 35.9971 38.3601 35.9761L38.8369 35.9896C45.3967 35.9896 50.7122 31.4823 50.7122 25.922C50.7122 20.6826 45.9827 16.3718 39.9382 15.9008Z" fill="white"/>
<path d="M64.7457 7.64965C64.7457 5.21973 63.7398 3.36129 61.7373 2.07734C59.7332 0.791878 57.0232 0.1469 53.6041 0.1469H52.5075L52.5413 29.2234C52.6352 30.2059 52.9151 31.0654 53.3888 31.7958C53.9717 32.7003 54.7807 33.4638 55.802 34.0833C56.8309 34.7058 58.0275 35.1677 59.3933 35.4767C60.7622 35.7872 62.2249 35.9417 63.7891 35.9417H78.8819C80.443 35.9417 81.8995 35.7977 83.2422 35.5127C84.5834 35.2232 85.7554 34.7988 86.7551 34.2258C87.7564 33.6543 88.57 32.8938 89.2068 31.9398C89.5759 31.3864 90.3111 29.7139 90.3111 28.6925V27.545H64.7457V7.64965Z" fill="white"/>
</svg>
