<svg width="162" height="36" viewBox="0 0 162 36" fill="none" xmlns="http://www.w3.org/2000/svg">
<path d="M146.643 11.0524L146.343 11.1515C145.173 8.6332 143.502 6.62853 141.33 5.13746C139.191 3.6464 136.501 2.90087 133.259 2.90087C131.454 2.90087 129.733 3.2819 128.095 4.04398C126.458 4.77297 125.021 5.81672 123.784 7.17524C122.581 8.50065 121.612 10.1077 120.877 11.9964C120.142 13.8851 119.774 15.9726 119.774 18.2589C119.774 20.5452 120.142 22.6327 120.877 24.5214C121.612 26.4101 122.581 28.0337 123.784 29.3922C125.021 30.7176 126.458 31.7448 128.095 32.4738C129.733 33.2027 131.454 33.5672 133.259 33.5672C136.467 33.5672 139.074 33.0702 141.079 32.0761C143.118 31.049 144.839 29.4917 146.242 27.4042L146.543 27.5032L146.443 30.6842C145.675 31.4794 144.789 32.1918 143.786 32.8213C142.784 33.4178 141.698 33.9314 140.528 34.3621C139.392 34.7598 138.205 35.058 136.969 35.2568C135.732 35.4889 134.496 35.605 133.259 35.605C130.686 35.605 128.23 35.1908 125.89 34.3624C123.551 33.534 121.495 32.3743 119.724 30.8832C117.953 29.3591 116.549 27.5366 115.513 25.416C114.477 23.2622 113.959 20.8765 113.959 18.2588C113.959 15.6412 114.477 13.272 115.513 11.1514C116.549 8.99762 117.953 7.15863 119.724 5.63446C121.495 4.11024 123.551 2.95051 125.89 2.15527C128.23 1.32688 130.686 0.912689 133.259 0.912689C134.496 0.912689 135.732 1.01209 136.969 1.21089C138.205 1.4097 139.392 1.72449 140.528 2.15527C141.698 2.55289 142.784 3.06649 143.786 3.69607C144.789 4.2925 145.675 4.98834 146.443 5.78358L146.643 11.0524Z" fill="white"/>
<path d="M36.177 20.5458C35.8096 20.7112 35.4587 20.9267 35.1243 21.1922C34.7899 21.4571 34.6227 21.8216 34.6227 22.2857V28.399C33.0185 30.6854 30.9632 32.4581 28.4567 33.7172C25.9502 34.9764 23.1764 35.6059 20.1351 35.6059C17.5618 35.6059 15.1055 35.1917 12.7661 34.3633C10.4267 33.535 8.37139 32.3752 6.6001 30.8841C4.82887 29.36 3.42523 27.5376 2.3892 25.4169C1.35322 23.2632 0.835236 20.8774 0.835236 18.2598C0.835236 15.6421 1.35322 13.273 2.3892 11.1524C3.42523 8.99855 4.82887 7.15956 6.6001 5.6354C8.37139 4.11117 10.4267 2.95143 12.7661 2.1562C15.1055 1.3278 17.5618 0.913605 20.1351 0.913605C21.3717 0.913605 22.6082 1.01302 23.8448 1.21183C25.0813 1.41064 26.2677 1.72542 27.404 2.1562C28.5737 2.55382 29.6598 3.06742 30.6624 3.69701C31.665 4.29343 32.5506 4.98927 33.3193 5.7845L33.5202 11.0529L33.2194 11.1519C32.0497 8.63367 30.3787 6.629 28.2065 5.13793C26.0676 3.64685 23.3773 2.90131 20.1355 2.90131C18.3308 2.90131 16.6097 3.28236 14.9722 4.04445C13.3346 4.77344 11.8975 5.81718 10.661 7.1757C9.45787 8.50111 8.48871 10.1082 7.75351 11.9969C7.01825 13.8855 6.65062 15.973 6.65062 18.2594C6.65062 20.5125 7.00153 22.5834 7.70335 24.4721C8.43861 26.3608 9.4078 27.9844 10.6109 29.343C11.8474 30.6684 13.2845 31.7121 14.922 32.4743C16.5596 33.2032 18.2975 33.5677 20.1355 33.5677C23.6112 33.5677 26.5856 32.905 29.0586 31.5796V22.2852C29.0586 21.8216 28.8749 21.4571 28.5075 21.1918C28.1731 20.9269 27.8389 20.7114 27.5049 20.5453L27.5507 20.2971C27.7176 20.3274 28.0184 20.3605 28.453 20.3962C28.8877 20.4265 29.3389 20.4595 29.8065 20.4952C30.3078 20.4952 30.7757 20.4952 31.2102 20.4952C31.6449 20.4952 31.9623 20.4952 32.1626 20.4952C32.3631 20.4952 32.6306 20.4952 32.965 20.4952C33.3324 20.4952 33.7167 20.4952 34.118 20.4952C34.519 20.4649 34.9033 20.4319 35.271 20.3962C35.6384 20.3659 35.9224 20.3328 36.1229 20.2971L36.177 20.5458Z" fill="white"/>
<path d="M72.4866 1.95691C72.1522 2.12239 71.818 2.33786 71.484 2.60335C71.1496 2.86822 70.9659 3.36525 70.9329 4.09442C70.9023 4.88966 70.869 5.90028 70.8329 7.1263C70.8329 8.31915 70.8176 9.67766 70.7871 11.2018C70.7871 12.7261 70.7718 14.3828 70.7412 16.1721C70.7412 17.9614 70.7412 19.817 70.7412 21.7388C70.7107 23.8925 70.4432 25.7315 69.9388 27.2558C69.4375 28.7799 68.7692 30.0556 67.9337 31.0828C67.1316 32.11 66.2293 32.9218 65.2267 33.5183C64.2575 34.1147 63.2883 34.562 62.3192 34.8602C61.3834 35.1918 60.4978 35.3906 59.6623 35.4566C58.8268 35.5561 58.1751 35.6058 57.7072 35.6058C55.8023 35.6058 53.9642 35.3573 52.1929 34.8602C50.4217 34.3965 48.8676 33.6344 47.5308 32.5739C46.1941 31.5136 45.1247 30.1385 44.3226 28.4486C43.5205 26.7587 43.1195 24.7044 43.1195 22.2855C43.1195 20.3636 43.1195 18.4915 43.1195 16.6692C43.1195 14.8136 43.1195 13.0905 43.1195 11.5001C43.1195 9.90958 43.1042 8.48478 43.0736 7.22567C43.0736 5.93341 43.0583 4.88966 43.0278 4.09442C42.9972 3.36543 42.8135 2.86841 42.4767 2.60335C42.1423 2.33847 41.8081 2.123 41.4741 1.95691L41.5199 1.70871C41.6868 1.73903 41.9543 1.77204 42.3223 1.80776C42.7234 1.83808 43.1244 1.8711 43.5254 1.90681C43.9601 1.90681 44.3779 1.92197 44.7787 1.95228C45.1797 1.95228 45.4805 1.95228 45.681 1.95228C45.8816 1.95228 46.1823 1.95228 46.5834 1.95228C46.9844 1.92197 47.4021 1.90681 47.8366 1.90681C48.2712 1.8765 48.6723 1.84348 49.0397 1.80776C49.4407 1.77744 49.7247 1.74443 49.8916 1.70871L49.9374 1.95691C49.57 2.12239 49.2191 2.33786 48.8847 2.60335C48.5839 2.86822 48.4167 3.36525 48.3831 4.09442C48.3525 4.88966 48.3192 5.93341 48.2832 7.22567C48.2832 8.48478 48.2832 9.90958 48.2832 11.5001C48.2832 13.0905 48.2832 14.8136 48.2832 16.6691C48.2832 18.4915 48.2832 20.3636 48.2832 22.2855C48.2832 25.8972 49.1354 28.5646 50.8398 30.2875C52.5442 32.0106 55.0674 32.8721 58.4094 32.8721C59.3786 32.8721 60.4814 32.756 61.718 32.5239C62.9545 32.259 64.1075 31.7289 65.1769 30.9334C66.2798 30.1382 67.1988 29.0116 67.9341 27.5537C68.7027 26.0957 69.087 24.1573 69.087 21.7385C69.087 19.1208 69.0718 16.8842 69.0412 15.0287C69.0412 13.14 69.0259 11.533 68.9953 10.2075C68.9953 8.84903 68.9801 7.6893 68.9495 6.72835C68.9189 5.76745 68.8856 4.88939 68.8495 4.09415C68.819 3.36516 68.6353 2.86813 68.2984 2.60308C67.964 2.3382 67.6298 2.12272 67.2958 1.95664L67.3417 1.70844C67.7091 1.77447 68.1268 1.84084 68.5949 1.90754C69.0625 1.93786 69.497 1.95302 69.8983 1.95302C70.2657 1.95302 70.6835 1.93786 71.1515 1.90754C71.6528 1.84151 72.0873 1.77514 72.4549 1.70844L72.4866 1.95691Z" fill="white"/>
<path d="M108.862 11.0524L108.562 11.1515C107.392 8.6332 105.721 6.62853 103.549 5.13746C101.41 3.6464 98.7194 2.90087 95.4777 2.90087C93.6731 2.90087 91.9519 3.2819 90.3143 4.04398C88.6767 4.77297 87.2397 5.81672 86.0032 7.17524C84.8001 8.50065 83.8309 10.1077 83.0956 11.9964C82.3604 13.8851 81.9928 15.9726 81.9928 18.2589C81.9928 20.5452 82.3604 22.6327 83.0956 24.5214C83.8309 26.4101 84.8001 28.0337 86.0032 29.3922C87.2397 30.7176 88.6767 31.7448 90.3143 32.4738C91.9519 33.2027 93.6731 33.5672 95.4777 33.5672C98.686 33.5672 101.293 33.0702 103.298 32.0761C105.337 31.049 107.058 29.4917 108.461 27.4042L108.762 27.5032L108.662 30.6842C107.893 31.4794 107.008 32.1918 106.005 32.8213C105.003 33.4178 103.916 33.9314 102.747 34.3621C101.611 34.7598 100.424 35.058 99.1876 35.2568C97.951 35.4889 96.7145 35.605 95.478 35.605C92.9046 35.605 90.4483 35.1908 88.1089 34.3624C85.7695 33.534 83.7142 32.3743 81.943 30.8832C80.1717 29.3591 78.768 27.5366 77.7321 25.416C76.696 23.2622 76.178 20.8765 76.178 18.2588C76.178 15.6412 76.696 13.272 77.7321 11.1514C78.768 8.99762 80.1717 7.15863 81.943 5.63446C83.7142 4.11024 85.7695 2.95051 88.1089 2.15527C90.4483 1.32688 92.9046 0.912689 95.478 0.912689C96.7145 0.912689 97.951 1.01209 99.1876 1.21089C100.424 1.4097 101.611 1.72449 102.747 2.15527C103.916 2.55289 105.003 3.06649 106.005 3.69607C107.008 4.2925 107.893 4.98834 108.662 5.78358L108.862 11.0524Z" fill="white"/>
<path d="M161.753 34.7605C161.586 34.7302 161.302 34.6971 160.901 34.6614C160.533 34.6614 160.132 34.6463 159.698 34.616C159.263 34.616 158.845 34.6008 158.444 34.5705C158.077 34.5705 157.793 34.5705 157.592 34.5705C157.392 34.5705 157.091 34.5705 156.69 34.5705C156.289 34.5705 155.871 34.5705 155.437 34.5705C155.036 34.6008 154.635 34.6338 154.234 34.6695C153.866 34.6998 153.582 34.7329 153.382 34.7686L153.336 34.5695C153.67 34.404 154.005 34.1885 154.339 33.923C154.673 33.6582 154.857 33.1611 154.89 32.432C154.92 31.6367 154.936 30.8084 154.936 29.9469C154.966 29.0853 154.981 28.1078 154.981 27.0144C154.981 25.9209 154.981 24.6784 154.981 23.2867C154.981 21.8619 154.981 20.1886 154.981 18.2668C154.981 16.3449 154.981 14.6716 154.981 13.2469C154.981 11.822 154.981 10.5629 154.981 9.46947C154.981 8.37601 154.966 7.41509 154.936 6.58669C154.936 5.72521 154.92 4.89684 154.89 4.1016C154.859 3.37262 154.675 2.87559 154.339 2.61052C154.004 2.31231 153.67 2.08047 153.336 1.91501L153.382 1.71588C153.582 1.78192 153.866 1.83162 154.234 1.865C154.635 1.865 155.036 1.88016 155.437 1.91047C155.872 1.94079 156.289 1.95595 156.69 1.95595C157.091 1.95595 157.392 1.95595 157.592 1.95595C157.793 1.95595 158.077 1.95595 158.444 1.95595C158.845 1.92563 159.263 1.91047 159.698 1.91047C160.132 1.88016 160.533 1.84714 160.901 1.81142C161.302 1.7811 161.586 1.74809 161.753 1.71237L161.799 1.91147C161.431 2.07695 161.08 2.3088 160.746 2.60701C160.445 2.8719 160.278 3.36891 160.244 4.09808C160.214 4.89332 160.18 5.72169 160.144 6.58317C160.144 7.41157 160.144 8.37249 160.144 9.46594C160.144 10.5594 160.144 11.8185 160.144 13.2434C160.144 14.6681 160.144 16.3414 160.144 18.2633C160.144 20.1851 160.144 21.8584 160.144 23.2832C160.144 24.6748 160.144 25.9174 160.144 27.0109C160.144 28.1043 160.144 29.0818 160.144 29.9434C160.175 30.8048 160.208 31.6332 160.244 32.4284C160.275 33.1574 160.442 33.6545 160.746 33.9195C161.08 34.1844 161.431 34.3999 161.799 34.5659L161.753 34.7605Z" fill="white"/>
</svg>
