<svg width="41" height="10" viewBox="0 0 41 10" fill="none" xmlns="http://www.w3.org/2000/svg">
<path d="M36.6612 3.1983L36.586 3.22306C36.2936 2.59349 35.8758 2.09232 35.3327 1.71955C34.798 1.34679 34.1254 1.16041 33.315 1.16041C32.8638 1.16041 32.4336 1.25566 32.0242 1.44618C31.6148 1.62843 31.2555 1.88937 30.9464 2.229C30.6456 2.56035 30.4033 2.96211 30.2195 3.43429C30.0357 3.90646 29.9438 4.42833 29.9438 4.99991C29.9438 5.57149 30.0357 6.09336 30.2195 6.56554C30.4033 7.03771 30.6456 7.44361 30.9464 7.78324C31.2555 8.11459 31.6148 8.37139 32.0242 8.55364C32.4336 8.73587 32.8638 8.82699 33.315 8.82699C34.1171 8.82699 34.7688 8.70273 35.2701 8.45422C35.7797 8.19743 36.21 7.8081 36.5609 7.28623L36.6361 7.31099L36.6111 8.10624C36.419 8.30505 36.1976 8.48314 35.9469 8.64052C35.6963 8.78963 35.4247 8.91803 35.1323 9.02572C34.8482 9.12513 34.5516 9.19968 34.2425 9.24938C33.9334 9.30742 33.6242 9.33644 33.3151 9.33644C32.6718 9.33644 32.0577 9.23289 31.4728 9.02579C30.888 8.81869 30.3742 8.52876 29.9314 8.15599C29.4885 7.77495 29.1376 7.31935 28.8786 6.78919C28.6196 6.25075 28.4901 5.65432 28.4901 4.9999C28.4901 4.34548 28.6196 3.7532 28.8786 3.22305C29.1376 2.68459 29.4885 2.22485 29.9314 1.8438C30.3742 1.46275 30.888 1.17282 31.4728 0.974006C32.0577 0.766909 32.6718 0.663361 33.3151 0.663361C33.6242 0.663361 33.9334 0.68821 34.2425 0.737912C34.5516 0.787613 34.8482 0.866312 35.1323 0.974006C35.4247 1.07341 35.6963 1.20181 35.9469 1.35921C36.1976 1.50831 36.419 1.68227 36.6111 1.88108L36.6612 3.1983Z" fill="white"/>
<path d="M9.04455 5.57186C8.9527 5.61322 8.86497 5.66709 8.78137 5.73346C8.69777 5.79968 8.65597 5.89081 8.65597 6.00683V7.53518C8.25493 8.10676 7.7411 8.54993 7.11448 8.86471C6.48785 9.17951 5.79439 9.3369 5.03408 9.3369C4.39075 9.3369 3.77667 9.23335 3.19181 9.02625C2.60698 8.81915 2.09315 8.52922 1.65032 8.15645C1.20751 7.77541 0.856606 7.31981 0.597597 6.78965C0.338603 6.25121 0.209106 5.65478 0.209106 5.00036C0.209106 4.34594 0.338603 3.75366 0.597597 3.22351C0.856606 2.68506 1.20751 2.22531 1.65032 1.84427C2.09315 1.46321 2.60698 1.17328 3.19181 0.974467C3.77667 0.767368 4.39075 0.663818 5.03408 0.663818C5.34322 0.663818 5.65236 0.688671 5.9615 0.738375C6.27062 0.788076 6.56722 0.866773 6.85129 0.974467C7.14371 1.07387 7.41525 1.20227 7.6659 1.35967C7.91654 1.50878 8.13796 1.68273 8.33013 1.88154L8.38034 3.19864L8.30514 3.2234C8.01272 2.59383 7.59498 2.09267 7.05191 1.7199C6.51719 1.34713 5.84461 1.16075 5.03417 1.16075C4.58301 1.16075 4.15273 1.25601 3.74335 1.44653C3.33395 1.62878 2.97468 1.88971 2.66554 2.22934C2.36476 2.5607 2.12247 2.96246 1.93868 3.43463C1.75486 3.9068 1.66295 4.42868 1.66295 5.00026C1.66295 5.56354 1.75068 6.08127 1.92614 6.55345C2.10995 7.02562 2.35225 7.43153 2.65303 7.77117C2.96215 8.10251 3.32141 8.36345 3.73081 8.55398C4.14021 8.73621 4.57466 8.82733 5.03417 8.82733C5.9031 8.82733 6.64669 8.66166 7.26496 8.33032V6.00673C7.26496 5.89081 7.21903 5.79968 7.12718 5.73336C7.04358 5.66714 6.96002 5.61327 6.87651 5.57175L6.88798 5.5097C6.9297 5.51728 7.00489 5.52553 7.11356 5.53446C7.22222 5.54204 7.33502 5.55029 7.45193 5.55922C7.57726 5.55922 7.69423 5.55922 7.80285 5.55922C7.91152 5.55922 7.99088 5.55922 8.04095 5.55922C8.09108 5.55922 8.15795 5.55922 8.24155 5.55922C8.3334 5.55922 8.42948 5.55922 8.52979 5.55922C8.63005 5.55164 8.72613 5.54339 8.81805 5.53446C8.9099 5.52688 8.98089 5.51863 9.03102 5.5097L9.04455 5.57186Z" fill="white"/>
<path d="M18.1219 0.924409C18.0383 0.965778 17.9547 1.01965 17.8713 1.08602C17.7877 1.15224 17.7417 1.27649 17.7335 1.45879C17.7258 1.65759 17.7175 1.91025 17.7085 2.21676C17.7085 2.51497 17.7047 2.8546 17.697 3.23564C17.697 3.61669 17.6932 4.03088 17.6856 4.4782C17.6856 4.92553 17.6856 5.38942 17.6856 5.86988C17.6779 6.40832 17.6111 6.86806 17.485 7.24912C17.3596 7.63016 17.1925 7.94908 16.9837 8.20588C16.7832 8.46269 16.5576 8.66564 16.3069 8.81475C16.0646 8.96385 15.8223 9.07568 15.58 9.15024C15.3461 9.23312 15.1247 9.28283 14.9158 9.29934C14.7069 9.3242 14.544 9.33662 14.4271 9.33662C13.9508 9.33662 13.4913 9.27449 13.0485 9.15024C12.6057 9.03432 12.2172 8.84379 11.883 8.57865C11.5488 8.31358 11.2814 7.9698 11.0809 7.54733C10.8804 7.12487 10.7801 6.61127 10.7801 6.00655C10.7801 5.52609 10.7801 5.05806 10.7801 4.60247C10.7801 4.13857 10.7801 3.70781 10.7801 3.31019C10.7801 2.91257 10.7763 2.55638 10.7687 2.2416C10.7687 1.91853 10.7648 1.65759 10.7572 1.45879C10.7496 1.27654 10.7036 1.15228 10.6194 1.08602C10.5358 1.0198 10.4523 0.965931 10.3688 0.924409L10.3802 0.862359C10.422 0.869938 10.4888 0.878191 10.5808 0.887121C10.6811 0.8947 10.7814 0.902955 10.8816 0.911884C10.9903 0.911884 11.0947 0.915673 11.1949 0.923251C11.2952 0.923251 11.3704 0.923251 11.4205 0.923251C11.4706 0.923251 11.5458 0.923251 11.6461 0.923251C11.7464 0.915673 11.8508 0.911884 11.9594 0.911884C12.0681 0.904305 12.1683 0.89605 12.2602 0.887121C12.3604 0.879542 12.4314 0.871288 12.4731 0.862359L12.4846 0.924409C12.3928 0.965778 12.305 1.01965 12.2214 1.08602C12.1462 1.15224 12.1044 1.27649 12.096 1.45879C12.0884 1.65759 12.0801 1.91853 12.071 2.2416C12.071 2.55638 12.071 2.91257 12.071 3.31019C12.071 3.70781 12.071 4.13857 12.071 4.60247C12.071 5.05806 12.071 5.52609 12.071 6.00655C12.071 6.90949 12.2841 7.57632 12.7102 8.00707C13.1363 8.43783 13.7671 8.6532 14.6026 8.6532C14.8449 8.6532 15.1206 8.62419 15.4297 8.56615C15.7389 8.49993 16.0271 8.36739 16.2945 8.16854C16.5702 7.96973 16.8 7.68809 16.9838 7.32361C17.1759 6.95911 17.272 6.47451 17.272 5.86981C17.272 5.21539 17.2682 4.65624 17.2605 4.19236C17.2605 3.72019 17.2567 3.31842 17.2491 2.98707C17.2491 2.64744 17.2453 2.35751 17.2376 2.11727C17.23 1.87704 17.2217 1.65753 17.2126 1.45872C17.205 1.27647 17.1591 1.15221 17.0749 1.08595C16.9913 1.01973 16.9077 0.965861 16.8242 0.924339L16.8357 0.862289C16.9275 0.878798 17.032 0.895391 17.149 0.912067C17.2659 0.919646 17.3745 0.923436 17.4748 0.923436C17.5667 0.923436 17.6711 0.919646 17.7881 0.912067C17.9134 0.895559 18.0221 0.878966 18.114 0.862289L18.1219 0.924409Z" fill="white"/>
<path d="M27.2159 3.1983L27.1407 3.22306C26.8483 2.59349 26.4305 2.09232 25.8874 1.71955C25.3527 1.34679 24.6802 1.16041 23.8697 1.16041C23.4186 1.16041 22.9883 1.25566 22.5789 1.44618C22.1695 1.62843 21.8102 1.88937 21.5011 2.229C21.2003 2.56035 20.958 2.96211 20.7742 3.43429C20.5904 3.90646 20.4985 4.42833 20.4985 4.99991C20.4985 5.57149 20.5904 6.09336 20.7742 6.56554C20.958 7.03771 21.2003 7.44361 21.5011 7.78324C21.8102 8.11459 22.1695 8.37139 22.5789 8.55364C22.9883 8.73587 23.4186 8.82699 23.8697 8.82699C24.6718 8.82699 25.3235 8.70273 25.8248 8.45422C26.3344 8.19743 26.7647 7.8081 27.1156 7.28623L27.1908 7.31099L27.1658 8.10624C26.9737 8.30505 26.7523 8.48314 26.5016 8.64052C26.251 8.78963 25.9794 8.91803 25.687 9.02572C25.4029 9.12513 25.1063 9.19968 24.7972 9.24938C24.4881 9.30742 24.1789 9.33644 23.8698 9.33644C23.2265 9.33644 22.6124 9.23289 22.0275 9.02579C21.4427 8.81869 20.9288 8.52876 20.486 8.15599C20.0432 7.77495 19.6923 7.31935 19.4333 6.78919C19.1743 6.25075 19.0448 5.65432 19.0448 4.9999C19.0448 4.34548 19.1743 3.7532 19.4333 3.22305C19.6923 2.68459 20.0432 2.22485 20.486 1.8438C20.9288 1.46275 21.4427 1.17282 22.0275 0.974006C22.6124 0.766909 23.2265 0.663361 23.8698 0.663361C24.1789 0.663361 24.4881 0.68821 24.7972 0.737912C25.1063 0.787613 25.4029 0.866312 25.687 0.974006C25.9794 1.07341 26.251 1.20181 26.5016 1.35921C26.7523 1.50831 26.9737 1.68227 27.1658 1.88108L27.2159 3.1983Z" fill="white"/>
<path d="M40.4385 9.12531C40.3968 9.11773 40.3258 9.10948 40.2255 9.10054C40.1337 9.10054 40.0334 9.09676 39.9248 9.08918C39.8161 9.08918 39.7117 9.08539 39.6114 9.07781C39.5196 9.07781 39.4486 9.07781 39.3985 9.07781C39.3483 9.07781 39.2731 9.07781 39.1729 9.07781C39.0726 9.07781 38.9682 9.07781 38.8596 9.07781C38.7593 9.08539 38.6591 9.09364 38.5588 9.10257C38.4669 9.11015 38.3959 9.1184 38.3458 9.12733L38.3344 9.07755C38.418 9.03619 38.5015 8.98232 38.585 8.91595C38.6686 8.84973 38.7145 8.72547 38.7228 8.54318C38.7304 8.34437 38.7342 8.13728 38.7342 7.92191C38.7419 7.70652 38.7457 7.46214 38.7457 7.18878C38.7457 6.91542 38.7457 6.60478 38.7457 6.25686C38.7457 5.90067 38.7457 5.48235 38.7457 5.00188C38.7457 4.52142 38.7457 4.1031 38.7457 3.74691C38.7457 3.3907 38.7457 3.07592 38.7457 2.80256C38.7457 2.52919 38.7419 2.28896 38.7342 2.08186C38.7342 1.86649 38.7304 1.6594 38.7228 1.46059C38.7151 1.27834 38.6692 1.15409 38.585 1.08782C38.5014 1.01327 38.4178 0.955307 38.3344 0.91394L38.3458 0.864159C38.3959 0.880668 38.4669 0.893094 38.5588 0.901438C38.6591 0.901438 38.7593 0.905227 38.8596 0.912806C38.9682 0.920385 39.0727 0.924175 39.1729 0.924175C39.2731 0.924175 39.3483 0.924175 39.3985 0.924175C39.4486 0.924175 39.5196 0.924175 39.6114 0.924175C39.7117 0.916596 39.8161 0.912806 39.9248 0.912806C40.0334 0.905227 40.1337 0.896972 40.2255 0.888043C40.3258 0.880464 40.3968 0.87221 40.4385 0.863281L40.45 0.913057C40.3581 0.954426 40.2704 1.01239 40.1868 1.08694C40.1116 1.15316 40.0698 1.27742 40.0614 1.45971C40.0538 1.65852 40.0454 1.86561 40.0364 2.08098C40.0364 2.28808 40.0364 2.52831 40.0364 2.80167C40.0364 3.07504 40.0364 3.38982 40.0364 3.74603C40.0364 4.10222 40.0364 4.52054 40.0364 5.001C40.0364 5.48147 40.0364 5.89979 40.0364 6.25598C40.0364 6.6039 40.0364 6.91454 40.0364 7.1879C40.0364 7.46126 40.0364 7.70564 40.0364 7.92103C40.0441 8.1364 40.0524 8.34349 40.0614 8.5423C40.0691 8.72455 40.1109 8.8488 40.1868 8.91507C40.2704 8.98129 40.3581 9.03516 40.45 9.07668L40.4385 9.12531Z" fill="white"/>
</svg>
