<svg width="164" height="40" viewBox="0 0 164 40" fill="none" xmlns="http://www.w3.org/2000/svg">
<path d="M22.7358 39.09H29.5811V10.5077H22.7358V12.8409C16.2657 8.17442 7.45122 9.82713 2.95023 16.5352C-1.55077 23.2433 0.0433364 32.3819 6.51352 37.0484C11.3896 40.5482 17.8598 40.5482 22.7358 37.0484V39.09ZM7.07614 24.896C7.07614 20.424 10.6394 16.7297 14.9529 16.7297C19.2663 16.7297 22.8296 20.424 22.8296 24.896C22.8296 29.3681 19.2663 33.0624 14.9529 33.0624C10.6394 33.0624 7.07614 29.4653 7.07614 24.896ZM54.7117 0.785797V12.8409C48.2415 8.17442 39.427 9.92435 34.926 16.5352C30.425 23.1461 32.1129 32.3819 38.4893 37.0484C43.3654 40.5482 49.8356 40.5482 54.7117 37.0484V39.09H61.5569V0.785797L54.7117 0.785797ZM39.0519 24.896C39.0519 20.424 42.6152 16.7297 46.9287 16.7297C51.2421 16.7297 54.8054 20.424 54.8054 24.896C54.8054 29.3681 51.2421 33.0624 46.9287 33.0624C42.6152 33.0624 39.0519 29.4653 39.0519 24.896ZM71.7779 0.785797H64.9327V7.88276H71.7779V0.785797ZM71.7779 10.5077H64.9327V39.09H71.7779V10.5077ZM96.9085 0.785797V12.8409C90.4383 8.17442 81.6239 9.82713 77.1229 16.5352C72.6219 23.2433 74.216 32.3819 80.6861 37.0484C85.5622 40.5482 92.0324 40.5482 96.9085 37.0484V39.09H103.754V0.785797L96.9085 0.785797ZM81.2488 24.896C81.2488 20.424 84.812 16.7297 89.1255 16.7297C93.439 16.7297 97.0022 20.424 97.0022 24.896C97.0022 29.3681 93.439 33.0624 89.1255 33.0624C84.812 33.0624 81.2488 29.4653 81.2488 24.896ZM128.978 39.09H135.823V10.5077H128.978V12.8409C122.508 8.17442 113.693 9.82713 109.192 16.5352C104.691 23.2433 106.286 32.3819 112.756 37.0484C117.632 40.5482 124.102 40.5482 128.978 37.0484V39.09ZM113.318 24.896C113.318 20.424 116.882 16.7297 121.195 16.7297C125.509 16.7297 129.072 20.424 129.072 24.896C129.072 29.3681 125.509 33.0624 121.195 33.0624C116.788 33.0624 113.318 29.4653 113.318 24.896ZM138.355 29.757C138.543 35.4929 143.325 39.576 151.202 39.576C157.672 39.576 163.017 36.6595 163.017 30.2431C163.017 25.771 160.579 23.1461 154.953 22.0767L150.545 21.2017C147.732 20.6184 145.763 20.1323 145.763 18.3824C145.763 16.438 147.638 15.6603 149.983 15.6603C153.452 15.6603 154.859 17.4102 154.953 19.549H161.892C161.516 13.9103 157.203 10.216 150.264 10.216C143.137 10.216 138.824 14.2992 138.824 19.6462C138.824 26.1599 143.888 27.2293 148.295 28.007L151.952 28.6876C154.577 29.1736 155.703 29.9514 155.703 31.5069C155.703 32.868 154.39 34.3262 151.295 34.3262C146.794 34.3262 145.388 31.8958 145.294 29.8542L138.355 29.757Z" fill="white"/>
</svg>
