<svg width="24" height="22" viewBox="0 0 24 22" fill="none" xmlns="http://www.w3.org/2000/svg">
<path d="M17.5 0.309326C16.3739 0.326841 15.2724 0.641179 14.3067 1.2206C13.341 1.80002 12.5453 2.624 12 3.60933C11.4546 2.624 10.6589 1.80002 9.6932 1.2206C8.7275 0.641179 7.62601 0.326841 6.49996 0.309326C4.7049 0.387317 3.01366 1.17258 1.79574 2.49356C0.577818 3.81454 -0.0677922 5.56385 -4.17093e-05 7.35933C-4.17093e-05 11.9063 4.78596 16.8723 8.79996 20.2393C9.69618 20.9925 10.8293 21.4054 12 21.4054C13.1706 21.4054 14.3037 20.9925 15.2 20.2393C19.214 16.8723 24 11.9063 24 7.35933C24.0677 5.56385 23.4221 3.81454 22.2042 2.49356C20.9863 1.17258 19.295 0.387317 17.5 0.309326ZM13.915 18.7093C13.3789 19.1607 12.7007 19.4082 12 19.4082C11.2992 19.4082 10.621 19.1607 10.085 18.7093C4.94696 14.3983 1.99996 10.2623 1.99996 7.35933C1.9316 6.09404 2.36632 4.85306 3.20932 3.90703C4.05232 2.961 5.23519 2.38668 6.49996 2.30933C7.76472 2.38668 8.9476 2.961 9.7906 3.90703C10.6336 4.85306 11.0683 6.09404 11 7.35933C11 7.62454 11.1053 7.8789 11.2929 8.06643C11.4804 8.25397 11.7347 8.35933 12 8.35933C12.2652 8.35933 12.5195 8.25397 12.7071 8.06643C12.8946 7.8789 13 7.62454 13 7.35933C12.9316 6.09404 13.3663 4.85306 14.2093 3.90703C15.0523 2.961 16.2352 2.38668 17.5 2.30933C18.7647 2.38668 19.9476 2.961 20.7906 3.90703C21.6336 4.85306 22.0683 6.09404 22 7.35933C22 10.2623 19.053 14.3983 13.915 18.7053V18.7093Z" fill="#181818"/>
</svg>
